<svg id="Layer_1" data-name="Layer 1" xmlns="http://www.w3.org/2000/svg" viewBox="0 0 122.88 122.88"><defs><style>.cls-1{fill:#2b2e3a;fill-rule:evenodd;}.cls-2{fill:#9feaf9;}</style></defs><title>electron</title><path class="cls-1" d="M122.88,61.44a61.44,61.44,0,1,0-61.44,61.44,61.44,61.44,0,0,0,61.44-61.44Z"/><path class="cls-2" d="M48.24,34.41c-12.48-2.27-22.35.11-26.28,6.92-2.94,5.09-2.1,11.83,2,19a1.28,1.28,0,1,0,2.22-1.27c-3.72-6.49-4.44-12.31-2-16.48,3.27-5.66,12.07-7.78,23.61-5.68L48,37a1.28,1.28,0,0,0,.25-2.54ZM30,71.64A80.13,80.13,0,0,0,49.11,86.7C67.21,97.16,86.49,100,96,93.47a1.26,1.26,0,0,0,.58-1.07,1.28,1.28,0,0,0-2-1C86,97.16,67.73,94.5,50.39,84.49A77.33,77.33,0,0,1,31.92,69.91a1.33,1.33,0,0,0-1-.42,1.28,1.28,0,0,0-1.28,1.28,1.33,1.33,0,0,0,.33.87Z"/><path class="cls-2" d="M93.42,67.56c8.17-9.65,11-19.37,7.1-26.16-2.89-5-9-7.65-17.11-7.75a1.28,1.28,0,0,0,0,2.56c7.3.09,12.56,2.37,14.92,6.47,3.26,5.64.72,14.3-6.84,23.23a1.28,1.28,0,1,0,2,1.65Zm-23-34.38a80.12,80.12,0,0,0-22.81,9C29,53,16.76,68.93,18.46,80.47A1.28,1.28,0,0,0,21,80.1C19.48,69.85,31,54.77,48.93,44.44A77.24,77.24,0,0,1,71,35.69a1.28,1.28,0,0,0-.24-2.54,1.36,1.36,0,0,0-.29,0Z"/><path class="cls-2" d="M42.13,90.12c4.27,11.93,11.26,19.28,19.13,19.28,5.73,0,11-3.91,15.17-10.79a1.21,1.21,0,0,0,.19-.67,1.28,1.28,0,0,0-2.38-.65c-3.72,6.19-8.29,9.55-13,9.55-6.53,0-12.77-6.55-16.72-17.58a1.28,1.28,0,0,0-2.49.41,1.16,1.16,0,0,0,.08.45Zm41.44-3.19A80.15,80.15,0,0,0,87,63.2C87,42,79.55,23.72,69,19a1.34,1.34,0,0,0-.49-.1,1.28,1.28,0,0,0-.55,2.44C77.37,25.55,84.42,42.9,84.42,63.2a77.92,77.92,0,0,1-3.29,23,1.34,1.34,0,0,0-.06.4,1.28,1.28,0,0,0,1.28,1.28,1.29,1.29,0,0,0,1.23-.92Zm21.67-2A6.13,6.13,0,1,0,99.11,91a6.12,6.12,0,0,0,6.13-6.12Zm-2.56,0a3.57,3.57,0,1,1-3.57-3.57,3.56,3.56,0,0,1,3.57,3.57Zm-79.4,7.75a6.13,6.13,0,1,0-6.13-6.13,6.13,6.13,0,0,0,6.13,6.13Zm0-2.56a3.57,3.57,0,1,1,3.57-3.57,3.57,3.57,0,0,1-3.57,3.57Z"/><path class="cls-2" d="M61.26,26.13A6.13,6.13,0,1,0,55.13,20a6.12,6.12,0,0,0,6.13,6.12Zm0-2.56A3.57,3.57,0,1,1,64.82,20a3.56,3.56,0,0,1-3.56,3.56Zm.93,37.69a4.43,4.43,0,0,1-5.27-3.39,4.92,4.92,0,0,1-.1-.94,4.43,4.43,0,1,1,5.37,4.33Z"/></svg>